<svg aria-hidden="true" className="text-2xl text-muted-foreground transition-colors duration-200 hover:text-black" fill="none" focusable="false" height="1em" role="presentation" viewBox="0 0 24 24" width="1em" xmlns="http://www.w3.org/2000/svg">
    <path d="M21.959 14.219v7.379h-4.278v-6.885c0-1.73-.619-2.91-2.167-2.91-1.182 0-1.886.796-2.195 1.565-.113.275-.142.658-.142 1.043v7.187h-4.28s.058-11.66 0-12.869h4.28v1.824l-.028.042h.028v-.042c.568-.875 1.583-2.126 3.856-2.126 2.815 0 4.926 1.84 4.926 5.792ZM4.421 2.526C2.958 2.526 2 3.486 2 4.749c0 1.235.93 2.224 2.365 2.224h.028c1.493 0 2.42-.989 2.42-2.224-.026-1.263-.927-2.223-2.392-2.223ZM2.254 21.598h4.278V8.729H2.254v12.869Z" fill="currentColor"></path>
</svg>